<svg width="43" height="43" viewBox="0 0 43 43" fill="none" xmlns="http://www.w3.org/2000/svg">
<path d="M0 21.5C0 9.62588 9.62588 0 21.5 0C33.3741 0 43 9.62588 43 21.5C43 33.3741 33.3741 43 21.5 43C9.62588 43 0 33.3741 0 21.5Z" fill="#1D293D"/>
<rect x="16.6136" y="10.75" width="11.7273" height="3.90909" rx="1.95455" fill="#E2E8F0"/>
<rect x="10.75" y="10.75" width="3.90909" height="3.90909" rx="1.95455" fill="#E2E8F0"/>
<rect x="16.6136" y="16.6136" width="15.6364" height="3.90909" rx="1.95455" fill="#E2E8F0"/>
<rect x="10.75" y="16.6136" width="3.90909" height="3.90909" rx="1.95455" fill="#E2E8F0"/>
<rect x="16.6136" y="22.4775" width="15.6364" height="3.90909" rx="1.95455" fill="#E2E8F0"/>
<rect x="10.75" y="22.4775" width="3.90909" height="3.90909" rx="1.95455" fill="#E2E8F0"/>
<rect x="16.6136" y="28.3408" width="11.7273" height="3.90909" rx="1.95455" fill="#E2E8F0"/>
<rect x="10.75" y="28.3408" width="3.90909" height="3.90909" rx="1.95455" fill="#E2E8F0"/>
</svg>
